<?xml version="1.0" standalone="no"?>
<!DOCTYPE svg PUBLIC "-//W3C//DTD SVG 20010904//EN"
 "http://www.w3.org/TR/2001/REC-SVG-20010904/DTD/svg10.dtd">
<svg version="1.0" xmlns="http://www.w3.org/2000/svg"
 width="260.000000pt" height="260.000000pt" viewBox="0 0 260.000000 260.000000"
 preserveAspectRatio="xMidYMid meet">
<metadata>
Created by potrace 1.11, written by Peter Selinger 2001-2013
</metadata>
<g transform="translate(0.000000,260.000000) scale(0.100000,-0.100000)"
fill="#000000" stroke="none">
<path d="M0 1300 l0 -1300 544 0 544 0 7 83 c6 87 -1 130 -33 174 -64 91 -102
201 -102 295 l0 67 -54 26 c-172 81 -347 281 -410 467 -41 123 -50 178 -49
303 2 239 90 443 259 606 109 104 189 152 329 200 l80 27 3 176 2 176 -560 0
-560 0 0 -1300z"/>
<path d="M1512 2419 l3 -180 60 -20 c225 -73 442 -275 523 -487 52 -134 64
-197 64 -327 0 -120 -11 -185 -49 -296 -47 -138 -173 -306 -297 -394 -30 -22
-56 -45 -56 -51 0 -5 11 -34 25 -62 40 -83 37 -91 -74 -206 -54 -55 -105 -115
-115 -133 -19 -38 -21 -123 -4 -205 l12 -58 498 0 498 0 0 1300 0 1300 -545 0
-545 0 2 -181z"/>
<path d="M1020 2017 c-137 -69 -226 -151 -299 -275 -71 -120 -85 -177 -85
-337 0 -127 2 -147 26 -213 15 -40 44 -101 65 -135 63 -104 207 -237 257 -237
22 0 45 -27 46 -55 1 -56 81 -123 115 -95 20 17 19 36 -9 120 -26 76 -49 102
-81 94 -16 -4 -17 -3 -5 5 21 15 66 13 82 -3 8 -7 29 -54 48 -105 35 -92 50
-109 89 -96 28 9 29 30 9 133 -18 97 -31 129 -57 149 -14 11 -13 12 6 13 12 0
31 -9 41 -20 17 -19 26 -51 64 -223 11 -52 35 -72 74 -63 36 9 33 61 -8 117
-17 24 -35 46 -39 49 -12 9 -21 57 -14 79 4 15 15 21 36 21 16 0 29 2 29 5 0
15 -32 65 -47 74 -17 10 -17 10 0 11 31 0 56 -19 77 -59 21 -42 36 -51 81 -51
19 0 29 5 29 15 0 31 -32 93 -53 103 l-22 11 23 0 c36 1 71 -28 105 -87 17
-30 38 -57 47 -59 9 -2 23 -16 32 -30 l16 -26 74 74 c84 84 137 165 176 271
24 66 26 86 26 213 0 120 -3 149 -23 205 -65 188 -206 340 -385 419 -57 25
-56 25 -56 9 0 -10 -46 -13 -195 -13 -149 0 -195 3 -195 13 0 20 -31 13 -100
-21z"/>
<path d="M1387 892 c-10 -14 47 -84 96 -120 31 -22 57 -32 81 -32 l35 0 -15
-36 c-13 -32 -13 -38 1 -60 8 -13 29 -31 45 -39 17 -9 30 -17 30 -18 0 -2 -29
-1 -65 1 -55 4 -73 0 -119 -22 -30 -15 -73 -46 -96 -69 -69 -68 -149 -205
-134 -229 8 -12 68 -2 106 18 53 28 55 17 32 -223 l-6 -63 62 0 c49 0 61 3 57
14 -16 42 -29 143 -24 187 9 71 43 124 147 225 49 48 94 100 100 115 10 22 7
45 -15 126 -35 132 -54 180 -74 189 -9 3 -52 13 -96 21 -44 7 -94 16 -111 19
-18 3 -34 2 -37 -4z"/>
</g>
</svg>
